<svg xmlns="http://www.w3.org/2000/svg" viewBox="0 0 120 120" role="img" aria-label="與英文單字 Uncle sign（叔叔標示）對應的幼兒學習插圖">
  <title>Uncle sign</title>
  <rect width="120" height="120" rx="16" fill="#FFF8F0"/>
  <ellipse cx="60" cy="108" rx="30" ry="6" fill="rgba(0,0,0,0.08)"/>
  
  <!-- pole -->
  <rect x="56" y="76" width="8" height="36" rx="3" fill="#795548"/>
  <!-- sign board shadow -->
  <rect x="17" y="19" width="88" height="60" rx="9" fill="rgba(0,0,0,0.07)"/>
  <!-- sign board -->
  <rect x="14" y="16" width="88" height="60" rx="8" fill="#FFFFFF" stroke="#42A5F5" stroke-width="3.5"/>
  <!-- subject scaled and centered in sign -->
  <g transform="translate(16,18) scale(0.56)"><title>Uncle</title>
  <rect width="120" height="120" rx="16" fill="#FFF8F0"/>
  <ellipse cx="60" cy="108" rx="30" ry="6" fill="rgba(0,0,0,0.08)"/>
  <circle cx="60" cy="36" r="16" fill="#E53935"/>
      <path d="M36 92 Q36 62 60 58 Q84 62 84 92 Z" fill="#6D4C41"/>
      <path d="M44 30 H76 L70 18 H50 Z" fill="#E53935"/>
      <ellipse cx="54" cy="32" rx="5" ry="4" fill="rgba(255,255,255,0.28)"/></g>
  <!-- sign bolt decorations -->
  <circle cx="22" cy="24" r="3" fill="#90CAF9"/>
  <circle cx="98" cy="24" r="3" fill="#90CAF9"/>
  <circle cx="22" cy="68" r="3" fill="#90CAF9"/>
  <circle cx="98" cy="68" r="3" fill="#90CAF9"/>
</svg>
