<svg xmlns="http://www.w3.org/2000/svg" viewBox="0 0 120 120" role="img" aria-label="與英文單字 Yacht activity（帆船活動）對應的幼兒學習插圖">
  <title>Yacht activity</title>
  <rect width="120" height="120" rx="16" fill="#FFF8F0"/>
  <ellipse cx="60" cy="108" rx="30" ry="6" fill="rgba(0,0,0,0.08)"/>
  
  <!-- paper shadow -->
  <rect x="17" y="15" width="88" height="96" rx="5" fill="rgba(0,0,0,0.06)"/>
  <!-- paper -->
  <rect x="14" y="12" width="88" height="96" rx="5" fill="#FFFFFF" stroke="#CBD5E1" stroke-width="1.5"/>
  <!-- title bar -->
  <rect x="14" y="12" width="88" height="22" rx="5" fill="#3B82F6"/>
  <rect x="14" y="25" width="88" height="9" fill="#3B82F6"/>
  <!-- title lines -->
  <rect x="22" y="18" width="34" height="4" rx="2" fill="rgba(255,255,255,0.55)"/>
  <!-- activity lines -->
  <rect x="22" y="42" width="56" height="2.5" rx="1.25" fill="#E2E8F0"/>
  <rect x="22" y="52" width="50" height="2.5" rx="1.25" fill="#E2E8F0"/>
  <rect x="22" y="62" width="54" height="2.5" rx="1.25" fill="#E2E8F0"/>
  <rect x="22" y="72" width="46" height="2.5" rx="1.25" fill="#E2E8F0"/>
  <rect x="22" y="82" width="52" height="2.5" rx="1.25" fill="#E2E8F0"/>
  <rect x="22" y="92" width="40" height="2.5" rx="1.25" fill="#E2E8F0"/>
  <!-- small subject top-right -->
  <g transform="translate(64,26) scale(0.38)"><title>Yacht</title>
  <rect width="120" height="120" rx="16" fill="#FFF8F0"/>
  <ellipse cx="60" cy="108" rx="30" ry="6" fill="rgba(0,0,0,0.08)"/>
  <rect x="24" y="52" width="72" height="24" rx="10" fill="#43A047"/>
    <ellipse cx="36" cy="58" rx="10" ry="6" fill="rgba(255,255,255,0.28)"/>
    <rect x="34" y="42" width="34" height="18" rx="6" fill="#00897B"/>
    <circle cx="38" cy="78" r="10" fill="#334155"/><circle cx="38" cy="78" r="4" fill="#CBD5E1"/>
    <circle cx="82" cy="78" r="10" fill="#334155"/><circle cx="82" cy="78" r="4" fill="#CBD5E1"/></g>
</svg>
