<svg xmlns="http://www.w3.org/2000/svg" viewBox="0 0 120 120" role="img" aria-label="一顆紅色蘋果">
  <title>Apple</title>
  <!-- shadow -->
  <ellipse cx="60" cy="105" rx="28" ry="7" fill="rgba(0,0,0,0.10)"/>
  <!-- apple body -->
  <path d="M60 25 C38 25 26 42 26 62 C26 86 40 102 60 102 C80 102 94 86 94 62 C94 42 82 25 60 25 Z" fill="#E53935"/>
  <!-- left lobe -->
  <path d="M60 30 C48 20 34 28 36 40 C38 50 50 54 60 50 Z" fill="#EF5350"/>
  <!-- right lobe -->
  <path d="M60 30 C72 20 86 28 84 40 C82 50 70 54 60 50 Z" fill="#EF5350"/>
  <!-- highlight -->
  <ellipse cx="45" cy="48" rx="9" ry="6" fill="rgba(255,255,255,0.30)" transform="rotate(-20,45,48)"/>
  <!-- stem -->
  <path d="M60 25 C60 16 65 10 68 8" stroke="#5D4037" stroke-width="3.5" stroke-linecap="round" fill="none"/>
  <!-- leaf -->
  <path d="M64 14 C70 8 78 10 76 18 C74 24 65 22 64 14 Z" fill="#43A047"/>
  <path d="M64 14 C70 11 76 14 73 18" stroke="#2E7D32" stroke-width="1" fill="none"/>
</svg>
